<mxfile host="app.diagrams.net" modified="2021-03-14T04:36:08.637Z" agent="5.0 (Windows NT 10.0; Win64; x64) AppleWebKit/537.36 (KHTML, like Gecko) Chrome/89.0.4389.82 Safari/537.36" etag="dHOg8BzhG2wRzNOP0Hb2" version="14.4.2" type="github">
  <diagram id="KwJBOFu3ABOf7YSCl4tU" name="Page-1">
    <mxGraphModel dx="1422" dy="794" grid="1" gridSize="10" guides="1" tooltips="1" connect="1" arrows="1" fold="1" page="1" pageScale="1" pageWidth="827" pageHeight="1169" math="0" shadow="0">
      <root>
        <mxCell id="0" />
        <mxCell id="1" parent="0" />
        <mxCell id="up9TPw2HUv-mGBbmwuR9-12" value="get_receipt" style="edgeStyle=orthogonalEdgeStyle;rounded=0;orthogonalLoop=1;jettySize=auto;html=1;" edge="1" parent="1" source="up9TPw2HUv-mGBbmwuR9-1" target="up9TPw2HUv-mGBbmwuR9-4">
          <mxGeometry relative="1" as="geometry">
            <mxPoint x="760" y="410" as="targetPoint" />
          </mxGeometry>
        </mxCell>
        <mxCell id="up9TPw2HUv-mGBbmwuR9-1" value="Seller" style="rounded=0;whiteSpace=wrap;html=1;" vertex="1" parent="1">
          <mxGeometry x="370" y="380" width="120" height="60" as="geometry" />
        </mxCell>
        <mxCell id="up9TPw2HUv-mGBbmwuR9-8" value="coffee" style="edgeStyle=orthogonalEdgeStyle;rounded=0;orthogonalLoop=1;jettySize=auto;html=1;" edge="1" parent="1" source="up9TPw2HUv-mGBbmwuR9-2" target="up9TPw2HUv-mGBbmwuR9-6">
          <mxGeometry relative="1" as="geometry">
            <Array as="points">
              <mxPoint x="170" y="350" />
              <mxPoint x="170" y="350" />
            </Array>
          </mxGeometry>
        </mxCell>
        <mxCell id="up9TPw2HUv-mGBbmwuR9-11" value="order" style="edgeStyle=orthogonalEdgeStyle;rounded=0;orthogonalLoop=1;jettySize=auto;html=1;" edge="1" parent="1" source="up9TPw2HUv-mGBbmwuR9-2" target="up9TPw2HUv-mGBbmwuR9-1">
          <mxGeometry relative="1" as="geometry">
            <Array as="points">
              <mxPoint x="310" y="410" />
              <mxPoint x="310" y="410" />
            </Array>
          </mxGeometry>
        </mxCell>
        <mxCell id="up9TPw2HUv-mGBbmwuR9-2" value="Customer" style="rounded=0;whiteSpace=wrap;html=1;" vertex="1" parent="1">
          <mxGeometry x="90" y="380" width="120" height="60" as="geometry" />
        </mxCell>
        <mxCell id="up9TPw2HUv-mGBbmwuR9-3" value="Coffee" style="rounded=0;whiteSpace=wrap;html=1;" vertex="1" parent="1">
          <mxGeometry x="294" y="240" width="120" height="60" as="geometry" />
        </mxCell>
        <mxCell id="up9TPw2HUv-mGBbmwuR9-13" style="edgeStyle=orthogonalEdgeStyle;rounded=0;orthogonalLoop=1;jettySize=auto;html=1;" edge="1" parent="1" source="up9TPw2HUv-mGBbmwuR9-4" target="up9TPw2HUv-mGBbmwuR9-5">
          <mxGeometry relative="1" as="geometry" />
        </mxCell>
        <mxCell id="up9TPw2HUv-mGBbmwuR9-4" value="ReceiptMachine" style="rounded=0;whiteSpace=wrap;html=1;" vertex="1" parent="1">
          <mxGeometry x="620" y="380" width="120" height="60" as="geometry" />
        </mxCell>
        <mxCell id="up9TPw2HUv-mGBbmwuR9-5" value="Receipt" style="rounded=0;whiteSpace=wrap;html=1;" vertex="1" parent="1">
          <mxGeometry x="620" y="520" width="120" height="60" as="geometry" />
        </mxCell>
        <mxCell id="up9TPw2HUv-mGBbmwuR9-9" value="order" style="edgeStyle=orthogonalEdgeStyle;rounded=0;orthogonalLoop=1;jettySize=auto;html=1;" edge="1" parent="1" source="up9TPw2HUv-mGBbmwuR9-6" target="up9TPw2HUv-mGBbmwuR9-2">
          <mxGeometry relative="1" as="geometry">
            <Array as="points">
              <mxPoint x="130" y="350" />
              <mxPoint x="130" y="350" />
            </Array>
          </mxGeometry>
        </mxCell>
        <mxCell id="up9TPw2HUv-mGBbmwuR9-10" value="coffee_info" style="edgeStyle=orthogonalEdgeStyle;rounded=0;orthogonalLoop=1;jettySize=auto;html=1;" edge="1" parent="1" source="up9TPw2HUv-mGBbmwuR9-6" target="up9TPw2HUv-mGBbmwuR9-3">
          <mxGeometry relative="1" as="geometry" />
        </mxCell>
        <mxCell id="up9TPw2HUv-mGBbmwuR9-6" value="Menu" style="rounded=0;whiteSpace=wrap;html=1;" vertex="1" parent="1">
          <mxGeometry x="90" y="240" width="120" height="60" as="geometry" />
        </mxCell>
        <mxCell id="up9TPw2HUv-mGBbmwuR9-14" value="product" style="rounded=0;whiteSpace=wrap;html=1;" vertex="1" parent="1">
          <mxGeometry x="220" y="150" width="120" height="60" as="geometry" />
        </mxCell>
        <mxCell id="up9TPw2HUv-mGBbmwuR9-20" style="edgeStyle=orthogonalEdgeStyle;rounded=0;orthogonalLoop=1;jettySize=auto;html=1;entryX=1;entryY=0.5;entryDx=0;entryDy=0;dashed=1;endArrow=block;endFill=0;" edge="1" parent="1" source="up9TPw2HUv-mGBbmwuR9-15" target="up9TPw2HUv-mGBbmwuR9-3">
          <mxGeometry relative="1" as="geometry" />
        </mxCell>
        <mxCell id="up9TPw2HUv-mGBbmwuR9-15" value="Espresso" style="rounded=0;whiteSpace=wrap;html=1;" vertex="1" parent="1">
          <mxGeometry x="500" y="180" width="120" height="60" as="geometry" />
        </mxCell>
        <mxCell id="up9TPw2HUv-mGBbmwuR9-18" style="edgeStyle=orthogonalEdgeStyle;rounded=0;orthogonalLoop=1;jettySize=auto;html=1;dashed=1;endArrow=block;endFill=0;" edge="1" parent="1" source="up9TPw2HUv-mGBbmwuR9-16" target="up9TPw2HUv-mGBbmwuR9-3">
          <mxGeometry relative="1" as="geometry" />
        </mxCell>
        <mxCell id="up9TPw2HUv-mGBbmwuR9-16" value="Americano" style="rounded=0;whiteSpace=wrap;html=1;" vertex="1" parent="1">
          <mxGeometry x="500" y="260" width="120" height="60" as="geometry" />
        </mxCell>
      </root>
    </mxGraphModel>
  </diagram>
</mxfile>
